<svg width="45" height="52" viewBox="0 0 45 52" fill="none" xmlns="http://www.w3.org/2000/svg">
  <path fill-rule="evenodd" clip-rule="evenodd" d="M4.70283 40.9343C5.32787 40.6719 5.50161 41.4236 5.12633 42.8142L4.87419 43.7401L6.02516 42.1127C9.5975 37.0077 14.3691 32.3416 18.9948 29.435C20.7868 28.302 23.2513 27.0233 25.0469 26.2874C25.9483 25.9215 26.7056 25.5815 26.7245 25.547C26.7345 25.5075 26.6268 25.0206 26.4639 24.4737C25.8076 22.2522 25.5599 19.2846 25.809 16.6515C26.0835 13.8524 26.7172 11.6614 27.9884 9.18847C28.9634 7.28015 29.8629 6.02998 31.2269 4.67489C33.0295 2.87677 35.5091 1.34913 37.4097 0.883888C39.5535 0.354996 42.0547 0.496999 43.1325 1.21848C43.8417 1.68982 44.0352 2.09982 43.7375 2.54425C43.5151 2.89264 43.3196 2.88995 41.7806 2.55119C37.4292 1.59224 32.6347 4.14508 29.7611 8.95442C28.24 11.5032 27.3954 14.5025 27.2783 17.7393C27.2043 19.7668 27.5811 22.4589 28.2259 24.3399L28.4404 24.9923L30.0606 24.5992C33.6569 23.7218 36.5355 23.5751 39.0862 24.1106C39.4639 24.1828 40.3968 24.5664 41.1581 24.9421C42.7438 25.718 43.6483 26.4942 44.2246 27.5918C44.605 28.3047 44.8079 29.4838 44.7044 30.2775C44.6008 31.0712 43.9253 32.3107 43.238 32.9469C42.446 33.6946 40.9645 34.3 39.5964 34.4515C34.7991 34.995 30.2974 32.5813 27.9419 28.1814C27.6941 27.7094 27.4395 27.292 27.3882 27.2634C27.0843 27.0944 22.6901 29.0954 20.3934 30.4489C16.046 33.0064 11.5887 37.057 8.17974 41.5394C7.45292 42.4904 5.59613 45.1707 5.33546 45.649C5.16353 45.9644 5.20734 45.9437 5.95544 45.4766C6.99597 44.838 7.73845 44.641 8.21113 44.9039C8.90986 45.2925 8.62583 45.8347 7.37303 46.5224C5.65145 47.4664 3.91288 48.905 2.34415 50.6952C1.07754 52.1523 0.475862 52.3507 0.360918 51.3718C0.298666 50.942 0.328677 50.8658 1.07409 49.3788C1.54281 48.4381 2.05936 47.2481 2.37238 46.372C4.18951 41.3251 4.27881 41.1016 4.70322 40.9265L4.70283 40.9343ZM30.1959 28.2363C31.9349 30.6649 34.8116 32.2941 37.8171 32.5813C39.9498 32.7783 41.8678 32.2776 42.6737 31.3255C43.7707 30.0181 42.917 28.1588 40.6498 26.8819C40.1361 26.5962 39.3166 26.2465 38.8281 26.0968C36.8679 25.5237 33.4999 25.5998 30.5417 26.2963L29.1573 26.6216L29.4151 27.0541C29.5552 27.2991 29.9042 27.8274 30.1985 28.2351L30.1959 28.2363Z" fill="#E25959"/>
  </svg>
  