<svg width="85" height="55" viewBox="0 0 85 55" fill="none" xmlns="http://www.w3.org/2000/svg">
  <g clip-path="url(#clip0_27_281)">
    <path fill-rule="evenodd" clip-rule="evenodd"
      d="M73.1931 54.0815C73.1027 53.9988 72.8242 53.4385 72.572 52.8425C71.9698 51.4564 70.972 49.801 69.0249 46.9484C67.6479 44.9474 67.4635 44.626 67.5491 44.4132C67.6696 44.1138 68.195 44.0604 68.6025 44.3058C69.0075 44.5517 69.8747 45.5866 70.9483 47.089L71.9315 48.4737L71.8515 47.9932C71.5744 46.1062 70.5677 42.3047 69.7764 40.1007C68.4305 36.3271 66.9875 33.5035 64.7492 30.2227C60.7969 24.4496 56.0021 20.3682 48.8446 16.6651C46.8226 15.6234 40.1431 12.9357 37.869 12.2488C31.8598 10.4355 27.7114 9.66287 22.6247 9.42041C19.4401 9.26531 17.971 9.36015 12.372 10.1192C10.0949 10.4202 8.73204 10.5227 8.10359 10.4246C7.40917 10.319 6.85168 9.73736 7.238 9.52748C7.67308 9.29096 13.7133 8.41594 16.4058 8.19914C22.2563 7.72476 29.485 8.61052 36.4553 10.6462C39.7255 11.6047 40.7058 11.9449 44.1783 13.3517C47.8962 14.8573 49.5132 15.618 52.0207 17.0481C58.0031 20.4523 62.4954 24.4757 66.1079 29.6639C69.1466 34.0452 71.1258 38.348 72.5865 43.7679C73.0523 45.4932 73.533 47.719 73.6704 48.7363L73.7348 49.2201L74.5013 47.4865L75.2705 45.7461L75.6606 45.6924C76.1362 45.6269 76.4618 45.8042 76.6277 46.2012C76.7245 46.4332 76.629 46.8064 76.0985 48.3317C75.6473 49.6243 75.3645 50.6639 75.1664 51.7647C74.7081 54.3274 74.7275 54.2793 74.2806 54.3739C73.8778 54.4591 73.4724 54.3502 73.1966 54.0845L73.1931 54.0815Z"
      fill="#E25959" />
  </g>
  <defs>
    <clipPath id="clip0_27_281">
      <rect width="79.2656" height="27.0377" fill="white"
        transform="matrix(0.927716 0.373286 0.373286 -0.927716 0.907211 25.0834)" />
    </clipPath>
  </defs>
</svg>
  