<svg width="30" height="30" viewBox="0 0 30 30" fill="none" xmlns="http://www.w3.org/2000/svg">
  <path
    d="M15.0067 7.30838C10.7492 7.30838 7.31507 10.7425 7.31507 15C7.31507 19.2575 10.7492 22.6916 15.0067 22.6916C19.2642 22.6916 22.6983 19.2575 22.6983 15C22.6983 10.7425 19.2642 7.30838 15.0067 7.30838ZM15.0067 20.0006C12.2554 20.0006 10.0061 17.758 10.0061 15C10.0061 12.242 12.2487 9.99944 15.0067 9.99944C17.7647 9.99944 20.0073 12.242 20.0073 15C20.0073 17.758 17.758 20.0006 15.0067 20.0006ZM24.807 6.99375C24.807 7.99119 24.0037 8.7878 23.0129 8.7878C22.0155 8.7878 21.2189 7.98449 21.2189 6.99375C21.2189 6.00301 22.0222 5.19971 23.0129 5.19971C24.0037 5.19971 24.807 6.00301 24.807 6.99375ZM29.9013 8.81457C29.7875 6.41136 29.2385 4.28261 27.478 2.52873C25.7241 0.774852 23.5953 0.225929 21.1921 0.105433C18.7153 -0.0351445 11.2914 -0.0351445 8.81457 0.105433C6.41805 0.219235 4.2893 0.768158 2.52873 2.52203C0.768158 4.27591 0.225929 6.40466 0.105433 8.80788C-0.0351445 11.2847 -0.0351445 18.7086 0.105433 21.1854C0.219235 23.5886 0.768158 25.7174 2.52873 27.4713C4.2893 29.2251 6.41136 29.7741 8.81457 29.8946C11.2914 30.0351 18.7153 30.0351 21.1921 29.8946C23.5953 29.7808 25.7241 29.2318 27.478 27.4713C29.2318 25.7174 29.7808 23.5886 29.9013 21.1854C30.0418 18.7086 30.0418 11.2914 29.9013 8.81457ZM26.7014 23.843C26.1793 25.1551 25.1685 26.1659 23.8497 26.6947C21.8749 27.478 17.189 27.2972 15.0067 27.2972C12.8244 27.2972 8.13176 27.4713 6.16367 26.6947C4.85161 26.1726 3.84079 25.1618 3.31195 23.843C2.52873 21.8682 2.70947 17.1823 2.70947 15C2.70947 12.8177 2.53542 8.12507 3.31195 6.15698C3.8341 4.84492 4.84492 3.8341 6.16367 3.30525C8.13846 2.52203 12.8244 2.70278 15.0067 2.70278C17.189 2.70278 21.8816 2.52873 23.8497 3.30525C25.1618 3.8274 26.1726 4.83822 26.7014 6.15698C27.4847 8.13176 27.3039 12.8177 27.3039 15C27.3039 17.1823 27.4847 21.8749 26.7014 23.843Z"
    fill="white" />
</svg>
  