<svg width="27" height="30" viewBox="0 0 27 30" fill="none" xmlns="http://www.w3.org/2000/svg">
<g id="linkedin 1" clip-path="url(#clip0_196_9)">
<path id="Vector" d="M24.5642 1.875H2.05835C1.0271 1.875 0.189209 2.72461 0.189209 3.76758V26.2324C0.189209 27.2754 1.0271 28.125 2.05835 28.125H24.5642C25.5955 28.125 26.4392 27.2754 26.4392 26.2324V3.76758C26.4392 2.72461 25.5955 1.875 24.5642 1.875ZM8.1228 24.375H4.23218V11.8477H8.12866V24.375H8.1228ZM6.17749 10.1367C4.92944 10.1367 3.92163 9.12305 3.92163 7.88086C3.92163 6.63867 4.92944 5.625 6.17749 5.625C7.41968 5.625 8.43335 6.63867 8.43335 7.88086C8.43335 9.12891 7.42554 10.1367 6.17749 10.1367ZM22.7068 24.375H18.8162V18.2812C18.8162 16.8281 18.7869 14.959 16.7947 14.959C14.7673 14.959 14.4568 16.541 14.4568 18.1758V24.375H10.5662V11.8477H14.2986V13.5586H14.3513C14.8728 12.5742 16.1443 11.5371 18.0369 11.5371C21.9744 11.5371 22.7068 14.1328 22.7068 17.5078V24.375Z" fill="white"/>
</g>
<defs>
<clipPath id="clip0_196_9">
<rect width="26.25" height="30" fill="white" transform="translate(0.189209)"/>
</clipPath>
</defs>
</svg>
