<svg width="143" height="52" viewBox="0 0 143 52" fill="none" xmlns="http://www.w3.org/2000/svg">
  <g clip-path="url(#clip0_30_18)">
    <path
      d="M49.063 16.8858L49.5264 15.7545C49.5264 15.7545 50.101 14.3382 50.1102 14.3382L52.3252 8.95792L55.0221 2.26248C55.3928 1.33358 54.707 0.321908 53.6968 0.321908H48.2382C47.506 0.321908 46.8573 0.763366 46.5793 1.43475L43.5302 8.98551C43.5302 8.98551 43.178 9.88682 43.1595 9.88682L40.8611 15.4694L34.0216 32.3184C28.7668 41.028 21.4176 46.5646 14.4854 46.5646C5.42158 46.5646 8.91549 36.9353 8.91549 36.9353C19.4065 38.2137 25.4027 35.5925 28.8224 28.2993C33.1041 19.231 28.461 13.4277 21.1117 13.4277C8.06287 13.4093 0 30.7549 0 40.6693C0 47.9625 4.20752 52 12.3445 52C19.8977 52 25.9402 48.45 30.6018 43.7227C30.1292 49.7192 33.3358 52 37.9603 52C41.8806 52 45.5506 50.0778 48.8776 47.0428L48.025 49.1305C47.645 50.0594 48.3401 51.0803 49.3503 51.0803H54.8089C55.5318 51.0803 56.1898 50.6389 56.4586 49.9767L66.3564 25.7333C69.4982 22.1924 72.918 20.5646 74.7808 20.5646C75.9207 20.5646 76.7826 21.1348 76.7826 22.1189C76.7826 23.1765 75.6426 26.0092 74.2896 29.2742L72.0746 34.8659C66.9403 47.4015 70.2211 52 76.5694 52C81.194 52 85.4015 49.1121 89.2846 44.6332C89.1734 49.9767 92.3152 52 96.4115 52C101.629 52 106.402 48.1189 110.721 42.4627C110.925 48.8086 114.493 52 120.6 52C126.096 52 130.452 49.3789 133.732 45.5529L136.874 41.2303C141.582 33.1553 143.009 25.0895 143.009 21.4751C143.009 16.5915 140.442 13.4001 135.586 13.4001C130.73 13.4001 127.023 17.4376 127.023 17.4376L133.223 2.25328C133.603 1.32438 132.908 0.303514 131.897 0.303514H126.439C125.716 0.303514 125.058 0.735775 124.789 1.40716C122.741 6.44713 114.354 27.0117 114.103 27.6371C113.418 29.3293 112.843 30.9296 112.37 32.4563C107.551 40.4945 102.324 46.5462 99.0527 46.5462C97.6255 46.5462 96.2725 45.2678 99.4049 37.4779L108.033 16.2696C108.413 15.3407 107.718 14.3198 106.708 14.3198H101.249C100.517 14.3198 99.8683 14.7612 99.5903 15.4326C99.5903 15.4326 92.7507 32.3092 92.7507 32.3184C87.913 40.4301 82.6305 46.537 79.3497 46.537C78.2098 46.537 76.3563 45.7552 79.7019 37.4687L83.7704 27.5543C85.2717 23.8755 86.0502 21.1072 86.0502 19.0563C86.0502 15.4418 83.5572 13.3909 79.915 13.3909C74.4564 13.3909 69.7948 17.7779 69.5075 18.0538L75.9114 2.23489C76.2914 1.30599 75.5963 0.294317 74.5861 0.294317H69.1275C68.4046 0.294317 67.7466 0.735775 67.4778 1.39796L54.7904 32.5391C49.8415 40.7337 44.4755 46.537 40.6758 46.537C39.0354 46.537 37.395 45.5437 40.6758 37.4687C41.7601 34.82 42.8351 32.162 43.9194 29.5133C45.4764 25.6965 46.6163 20.6014 48.8776 17.1617C51.6579 12.931 61.2129 10.9353 65.9579 9.91441C72.6399 8.47967 79.5814 8.23135 86.3375 9.26142C92.7507 10.2363 99.3586 12.3056 105.586 10.4662C106.949 10.0616 108.302 9.44536 109.284 8.42449C111.082 6.56669 111.295 3.41211 109.775 1.32438C109.414 0.827745 108.96 0.386288 108.385 0.156362C106.606 -0.551809 104.845 1.03928 103.334 2.2165C99.8498 4.93882 95.253 5.88611 90.8231 5.9137C86.3931 5.94129 82.0003 5.14115 77.5796 4.72728C67.4871 3.78919 57.2093 4.94801 47.5802 8.10259M20.6205 20.4818C23.0487 20.4818 23.1135 22.4684 21.4083 26.2207C19.6938 29.9731 17.1266 33.376 10.4169 32.2356C10.4169 32.2356 14.6985 20.4818 20.6205 20.4818ZM133.723 35.9696C132.648 38.1401 126.939 47.6314 121.972 45.7276C117.477 44.0078 118.561 37.0456 121.972 29.8904C125.373 22.7535 129.061 18.0814 134.437 19.6173C140.563 21.3647 135.855 31.6838 133.732 35.9788L133.723 35.9696Z"
      fill="white" />
    <path
      d="M26.5425 1.47153C27.8215 1.11285 29.1931 0.818542 30.472 1.16803C31.7509 1.51752 32.9001 2.72233 32.7241 4.02831C32.5943 4.95721 31.8436 5.71136 30.9817 6.10683C30.1198 6.50231 29.1653 6.62187 28.2292 6.75063C24.7817 7.23807 21.3712 8.075 18.1368 9.37178C16.1905 10.1535 14.1424 11.3307 12.0572 12.1309C10.4075 12.7655 9.07298 10.687 10.3705 9.49134C11.8718 8.11179 14.0312 7.03573 15.273 6.29077C18.7855 4.18465 22.5945 2.55678 26.5518 1.46233L26.5425 1.47153Z"
      fill="white" />
  </g>
  <defs>
    <clipPath id="clip0_30_18">
      <rect width="143" height="52" fill="white" />
    </clipPath>
  </defs>
</svg>
  