<svg width="31" height="30" viewBox="0 0 31 30" fill="none" xmlns="http://www.w3.org/2000/svg">
  <path
    d="M30.4382 15C30.4382 23.2863 23.7245 30 15.4382 30C13.8898 30 12.4019 29.7641 10.9987 29.3286C11.6096 28.3306 12.5229 26.6976 12.8616 25.3972C13.0431 24.6956 13.7931 21.8286 13.7931 21.8286C14.283 22.7601 15.7104 23.5524 17.2286 23.5524C21.7527 23.5524 25.0128 19.3911 25.0128 14.2198C25.0128 9.26613 20.9665 5.55847 15.7648 5.55847C9.29307 5.55847 5.85154 9.90121 5.85154 14.6371C5.85154 16.8387 7.02493 19.5786 8.89388 20.4496C9.17815 20.5827 9.32936 20.5222 9.39589 20.25C9.44428 20.0444 9.69831 19.0222 9.81323 18.5504C9.84952 18.3992 9.83138 18.2661 9.71041 18.121C9.09952 17.3649 8.60355 15.9859 8.60355 14.6976C8.60355 11.3891 11.1076 8.18952 15.3777 8.18952C19.0612 8.18952 21.6439 10.6996 21.6439 14.2923C21.6439 18.3508 19.5935 21.1633 16.9261 21.1633C15.4564 21.1633 14.3495 19.9476 14.7064 18.4536C15.1298 16.6694 15.9463 14.746 15.9463 13.4577C15.9463 12.3085 15.3294 11.3468 14.0471 11.3468C12.5411 11.3468 11.3314 12.9012 11.3314 14.9879C11.3314 16.3185 11.779 17.2137 11.779 17.2137C11.779 17.2137 10.2971 23.4919 10.0249 24.6653C9.72251 25.9597 9.84347 27.7863 9.97049 28.9718C4.39388 26.7883 0.438232 21.3569 0.438232 15C0.438232 6.71371 7.15194 0 15.4382 0C23.7245 0 30.4382 6.71371 30.4382 15Z"
    fill="white" />
</svg>
  