<svg width="147" height="160" viewBox="0 0 147 160" fill="none" xmlns="http://www.w3.org/2000/svg">
  <ellipse cx="82" cy="107" rx="52" ry="53" fill="#EFE6D3" />
  <g clip-path="url(#clip0_30_245)">
    <path
      d="M77.1991 58.631L77.0249 61.2636C75.8856 65.7804 79.2765 70.2704 83.9406 70.217C84.0076 70.217 84.0612 70.217 84.1283 70.217C89.3151 69.7626 89.5429 73.4509 89.9584 75.0812C92.2503 84.0613 94.0864 84.9566 99.2866 86.6938C104.487 88.4177 103.736 83.0858 110.464 86.2662C113.038 87.4823 114.941 87.0546 114.941 87.0546"
      stroke="#09494C" stroke-width="3.05" stroke-linecap="round" stroke-linejoin="round" />
    <path
      d="M78.4724 155.314L75.2156 147.643C75.2156 147.643 60.7541 146.107 57.4437 147.349L49.4691 151.305"
      stroke="#09494C" stroke-width="3.05" stroke-linecap="round" stroke-linejoin="round" />
    <path
      d="M82.4262 154.432C78.4992 155.434 74.3846 155.969 70.1493 155.969C43.0492 155.969 21.0823 134.066 21.0823 107.046C21.0823 80.0256 43.0492 58.1232 70.1493 58.1232C97.2495 58.1232 119.216 80.0256 119.216 107.046C119.216 109.598 119.015 112.111 118.64 114.556"
      stroke="#09494C" stroke-width="3.05" stroke-linecap="round" stroke-linejoin="round" />
    <path
      d="M43.5184 94.5113L42.1513 102.997C41.91 104.52 42.4596 106.071 43.6256 107.099L53.825 116.08C54.8034 116.935 55.3529 118.164 55.3529 119.46V134.815C55.3529 137.715 58.0468 139.853 60.8748 139.225C62.9388 138.757 64.4131 136.926 64.4131 134.815V133.278C64.4131 131.581 65.3646 130.031 66.8791 129.256L71.235 127.024C72.7495 126.249 73.7011 124.699 73.7011 123.002V119.621C73.7011 118.044 74.532 116.574 75.8857 115.745L78.8209 113.982C79.7591 113.42 80.456 112.552 80.7911 111.509L82.1849 107.233C82.9891 104.774 81.5684 102.142 79.0621 101.474L71.2484 99.3622C70.6185 99.1885 70.0422 98.8945 69.5463 98.4802L65.11 90.2885C64.9224 90.1148 64.6677 89.8743 64.4801 89.7139L58.6767 87.2016C55.9292 86.0123 52.726 86.0791 50.1929 87.656C50.0052 87.7763 49.831 87.8965 49.6836 88.0168L45.1401 91.6917C44.2689 92.3866 43.6926 93.3888 43.5184 94.4846V94.5113Z"
      stroke="#09494C" stroke-width="3.05" stroke-linecap="round" stroke-linejoin="round" />
    <path
      d="M30.3704 78.422L34.418 81.4554C35.6376 82.3641 37.2727 82.5245 38.6398 81.8563L43.5049 79.5178C43.9606 79.304 44.4565 79.1703 44.9658 79.1302L54.1332 78.4086C54.7229 78.3685 55.2992 78.4487 55.8622 78.6358C58.5293 79.6113 61.3572 77.6336 61.3572 74.8006V71.6335C61.3572 70.0833 60.4861 68.6802 59.1056 67.9853L49 62.9073"
      stroke="#09494C" stroke-width="3.05" stroke-linecap="round" stroke-linejoin="round" />
    <path
      d="M61.3572 31.2632C61.3572 31.2632 60.7541 26.9068 64.1852 24.9825C67.1069 23.3521 71.57 24.1673 71.6638 20.2786C71.7711 16.3899 73.6876 14.5725 75.4836 14.0647C80.0003 12.7818 81.6622 17.4189 84.4901 17.7129C90.5749 18.381 90.3337 12.5279 95.8556 13.2095C97.1154 13.3698 98.9382 14.4389 100.278 18.6216C101.592 22.7508 108.668 20.0648 110.116 14.6794C111.858 8.23833 127.553 9.61475 122.728 23.8867C120.918 29.232 117.97 31.0761 114.995 31.3033C114.995 31.3033 114.472 39.5751 107.449 39.5751C105.264 39.5751 103.844 38.6931 102.919 37.5573C101.873 36.261 100.131 35.7131 98.4959 36.0472C95.9896 36.555 92.5585 36.3011 90.5347 32.1184C89.7038 30.3946 86.581 28.0293 82.8952 31.2365"
      stroke="#E25959" stroke-width="3" stroke-linecap="round" stroke-linejoin="round" />
    <path
      d="M138.235 144.65V142.231C138.235 132.222 130.086 124.097 120.034 124.097C110.96 124.097 103.039 131.367 101.672 140.026H99.6619C99.2196 140.026 98.7773 140.04 98.3484 140.08C88.3501 140.895 89.2883 155.955 99.3134 155.955H139.267C146.397 155.955 147.054 145.251 139.95 144.677C139.642 144.65 139.334 144.637 139.025 144.637H138.235V144.65Z"
      stroke="#E25959" stroke-width="3" stroke-linecap="round" stroke-linejoin="round" />
    <path
      d="M4.63732 50.2924C4.79815 50.2924 4.95898 50.279 5.11981 50.279H5.76314V48.8625C5.76314 46.8714 6.39306 45.0406 7.46527 43.5306C8.24262 42.3413 9.26122 41.4593 10.4407 40.8312C11.7943 40.0562 13.3624 39.6152 15.0244 39.6152H16.4048C20.8679 39.6152 24.4866 43.2232 24.4866 47.6732V47.887H25.532C25.7599 47.887 25.9877 47.887 26.2155 47.9137C31.4024 48.328 30.9199 56.1589 25.7196 56.1589H4.99919C1.30006 56.1589 0.964996 50.5997 4.63732 50.3058V50.2924Z"
      stroke="#E25959" stroke-width="3" stroke-linecap="round" stroke-linejoin="round" />
    <path d="M89.9987 61.7981L80.0941 40.3234H60.218L50.3135 61.7981" stroke="#09494C"
      stroke-width="3" stroke-linecap="round" stroke-linejoin="round" />
    <path
      d="M81.0323 31.2631H60.2716C57.7623 31.2631 55.7281 33.2913 55.7281 35.7933C55.7281 38.2952 57.7623 40.3234 60.2716 40.3234H81.0323C83.5416 40.3234 85.5758 38.2952 85.5758 35.7933C85.5758 33.2913 83.5416 31.2631 81.0323 31.2631Z"
      stroke="#09494C" stroke-width="3" stroke-linecap="round" stroke-linejoin="round" />
  </g>
  <defs>
    <clipPath id="clip0_30_245">
      <rect width="147" height="149" fill="white" transform="translate(0 9)" />
    </clipPath>
  </defs>
</svg>
  