<svg width="153" height="151" viewBox="0 0 153 151" fill="none" xmlns="http://www.w3.org/2000/svg">
  <rect y="31" width="126" height="120" rx="5" fill="#EFE6D3" />
  <path d="M150.781 48.7744H13.236" stroke="#E25959" stroke-width="2.8" stroke-miterlimit="10" />
  <path
    d="M82.0083 48.7744V55.4088C82.0083 64.9609 74.3165 72.7117 64.8089 72.7117C55.3139 72.7117 47.6095 64.9736 47.6095 55.4088V48.7744"
    stroke="#E25959" stroke-width="2.8" stroke-miterlimit="10" />
  <path d="M137.969 132.409V72.7117" stroke="#09494C" stroke-width="2.8" stroke-miterlimit="10"
    stroke-linecap="round" />
  <path d="M26.0471 72.7117V132.409" stroke="#09494C" stroke-width="2.8" stroke-miterlimit="10"
    stroke-linecap="round" />
  <path d="M99.2078 72.7117V132.409" stroke="#09494C" stroke-width="2.8" stroke-miterlimit="10"
    stroke-linecap="round" />
  <path d="M111.691 98.9958V114.599" stroke="#09494C" stroke-width="2.8" stroke-miterlimit="10"
    stroke-linecap="round" />
  <path d="M147.855 139.868H16.1613" stroke="#09494C" stroke-width="2.8" stroke-miterlimit="10"
    stroke-linecap="round" />
  <path d="M86.7999 119.229H41.3929C40.6994 119.229 40.132 118.658 40.132 117.96V82.6316"
    stroke="#09494C" stroke-width="2.8" stroke-miterlimit="10" stroke-linecap="round" />
  <path
    d="M116.395 48.7744V55.4088C116.395 64.9609 124.086 72.7117 133.594 72.7117C143.089 72.7117 150.793 64.9736 150.793 55.4088V48.7744L133.72 21.6276C132.711 20.0166 130.946 19.0398 129.042 19.0398H34.9874C33.096 19.0398 31.3306 20.0166 30.3093 21.6276L13.236 48.7744V55.4088C13.236 64.9609 20.9278 72.7117 30.4354 72.7117C39.9304 72.7117 47.6348 64.9736 47.6348 55.4088V48.7744"
    stroke="#E25959" stroke-width="2.8" stroke-miterlimit="10" />
  <path
    d="M82.0083 48.7744V55.4088C82.0083 64.9609 89.7001 72.7117 99.2077 72.7117C108.703 72.7117 116.407 64.9736 116.407 55.4088V48.7744"
    stroke="#E25959" stroke-width="2.8" stroke-miterlimit="10" />
  <path d="M78.7427 92.3994L69.109 106.455" stroke="#09494C" stroke-width="2.8"
    stroke-miterlimit="10" stroke-linecap="round" />
  <path d="M69.2727 85.4097L54.3304 107.178" stroke="#09494C" stroke-width="2.8"
    stroke-miterlimit="10" stroke-linecap="round" />
</svg>
  