<svg width="27" height="30" viewBox="0 0 27 30" fill="none" xmlns="http://www.w3.org/2000/svg">
  <path
    d="M26.4382 12.3025C23.858 12.3087 21.341 11.504 19.2429 10.0021V20.4767C19.2422 22.4167 18.6492 24.3102 17.5433 25.9041C16.4373 27.498 14.8712 28.7163 13.0541 29.396C11.2371 30.0758 9.25591 30.1846 7.37537 29.708C5.49484 29.2313 3.80464 28.1919 2.53079 26.7288C1.25693 25.2656 0.460123 23.4484 0.246922 21.5201C0.0337209 19.5919 0.414283 17.6445 1.33772 15.9384C2.26116 14.2323 3.68346 12.8487 5.41444 11.9728C7.14542 11.0968 9.10257 10.7702 11.0242 11.0366V16.3049C10.1449 16.0283 9.2006 16.0366 8.32628 16.3287C7.45196 16.6208 6.69229 17.1816 6.15574 17.9312C5.61919 18.6808 5.33321 19.5807 5.33864 20.5025C5.34407 21.4243 5.64063 22.3208 6.18597 23.064C6.73131 23.8072 7.49754 24.3591 8.37524 24.6409C9.25294 24.9226 10.1972 24.9198 11.0732 24.6329C11.9493 24.3459 12.7122 23.7895 13.2531 23.0431C13.7941 22.2967 14.0853 21.3985 14.0853 20.4767V0H19.2429C19.2393 0.435544 19.2758 0.870494 19.3519 1.29935C19.5311 2.25671 19.9037 3.16745 20.447 3.97585C20.9903 4.78425 21.6928 5.47333 22.5115 6.00093C23.6763 6.7711 25.0419 7.1816 26.4382 7.18131V12.3025Z"
    fill="white" />
</svg>
  